HIERARCHY
ROOT Hips
{
	OFFSET 0.000000 100.481300 0.000000
	CHANNELS 6 Xposition Yposition Zposition Xrotation Yrotation Zrotation
	JOINT Spine
	{
		OFFSET -0.279200 12.230698 -2.892100
		CHANNELS 3 Xrotation Yrotation Zrotation
		JOINT Spine1
		{
			OFFSET -0.325700 14.269203 -3.374200
			CHANNELS 3 Xrotation Yrotation Zrotation
			JOINT Spine2
			{
				OFFSET -0.372300 16.307602 -0.352600
				CHANNELS 3 Xrotation Yrotation Zrotation
				JOINT Neck
				{
					OFFSET -0.418800 17.814194 8.416900
					CHANNELS 3 Xrotation Yrotation Zrotation
					JOINT Head
					{
						OFFSET 0.000000 7.031097 3.806800
						CHANNELS 3 Xrotation Yrotation Zrotation
						JOINT HeadTop_End
						{
							OFFSET 0.000000 24.646606 12.978600
							CHANNELS 3 Xrotation Yrotation Zrotation
							End Site
							{
								OFFSET 0.000000 27.854965 0.000000
							}
						}
					}
				}
				JOINT LeftShoulder
				{
					OFFSET 16.952999 14.495407 -7.737500
					CHANNELS 3 Xrotation Yrotation Zrotation
					JOINT LeftArm
					{
						OFFSET 9.308998 -2.777710 0.208600
						CHANNELS 3 Xrotation Yrotation Zrotation
						JOINT LeftForeArm
						{
							OFFSET 29.972298 0.000000 0.000000
							CHANNELS 3 Xrotation Yrotation Zrotation
							JOINT LeftHand
							{
								OFFSET 26.026505 0.000000 0.000000
								CHANNELS 3 Xrotation Yrotation Zrotation
								JOINT LeftHandThumb1
								{
									OFFSET 12.240501 -7.147949 9.207150
									CHANNELS 3 Xrotation Yrotation Zrotation
									JOINT LeftHandThumb2
									{
										OFFSET 4.138618 -2.389435 2.389433
										CHANNELS 3 Xrotation Yrotation Zrotation
										JOINT LeftHandThumb3
										{
											OFFSET 2.726913 -1.574387 1.574386
											CHANNELS 3 Xrotation Yrotation Zrotation
											JOINT LeftHandThumb4
											{
												OFFSET 3.941010 -2.275345 2.275342
												CHANNELS 3 Xrotation Yrotation Zrotation
												End Site
												{
													OFFSET -0.005798 5.087799 0.009903
												}
											}
										}
									}
								}
								JOINT LeftHandIndex1
								{
									OFFSET 24.424698 -1.985611 5.953459
									CHANNELS 3 Xrotation Yrotation Zrotation
									JOINT LeftHandIndex2
									{
										OFFSET 6.426697 0.000000 0.000000
										CHANNELS 3 Xrotation Yrotation Zrotation
										JOINT LeftHandIndex3
										{
											OFFSET 5.337898 0.000000 0.000000
											CHANNELS 3 Xrotation Yrotation Zrotation
											JOINT LeftHandIndex4
											{
												OFFSET 4.409401 0.000000 0.000000
												CHANNELS 3 Xrotation Yrotation Zrotation
												End Site
												{
													OFFSET 0.000000 4.409363 0.014373
												}
											}
										}
									}
								}
								JOINT LeftHandMiddle1
								{
									OFFSET 23.810104 0.000000 0.000000
									CHANNELS 3 Xrotation Yrotation Zrotation
									JOINT LeftHandMiddle2
									{
										OFFSET 7.176498 0.000000 0.000000
										CHANNELS 3 Xrotation Yrotation Zrotation
										JOINT LeftHandMiddle3
										{
											OFFSET 6.774902 0.000000 0.000000
											CHANNELS 3 Xrotation Yrotation Zrotation
											JOINT LeftHandMiddle4
											{
												OFFSET 5.403328 0.000000 0.000000
												CHANNELS 3 Xrotation Yrotation Zrotation
												End Site
												{
													OFFSET -0.027702 5.403244 0.017414
												}
											}
										}
									}
								}
								JOINT LeftHandRing1
								{
									OFFSET 22.908401 -0.839279 -6.020567
									CHANNELS 3 Xrotation Yrotation Zrotation
									JOINT LeftHandRing2
									{
										OFFSET 6.337502 0.000000 0.000000
										CHANNELS 3 Xrotation Yrotation Zrotation
										JOINT LeftHandRing3
										{
											OFFSET 5.779297 0.000000 0.000000
											CHANNELS 3 Xrotation Yrotation Zrotation
											JOINT LeftHandRing4
											{
												OFFSET 4.965698 0.000000 0.000000
												CHANNELS 3 Xrotation Yrotation Zrotation
												End Site
												{
													OFFSET 0.000000 4.965668 0.016186
												}
											}
										}
									}
								}
								JOINT LeftHandPinky1
								{
									OFFSET 20.037003 -1.530319 -10.950146
									CHANNELS 3 Xrotation Yrotation Zrotation
									JOINT LeftHandPinky2
									{
										OFFSET 5.254700 0.000000 0.000000
										CHANNELS 3 Xrotation Yrotation Zrotation
										JOINT LeftHandPinky3
										{
											OFFSET 4.810204 0.000000 0.000000
											CHANNELS 3 Xrotation Yrotation Zrotation
											JOINT LeftHandPinky4
											{
												OFFSET 3.647202 0.000000 0.000000
												CHANNELS 3 Xrotation Yrotation Zrotation
												End Site
												{
													OFFSET 0.000000 3.647186 0.011889
												}
											}
										}
									}
								}
							}
						}
					}
				}
				JOINT RightShoulder
				{
					OFFSET -15.141001 14.495407 -7.737500
					CHANNELS 3 Xrotation Yrotation Zrotation
					JOINT RightArm
					{
						OFFSET -9.308998 -2.777710 0.208500
						CHANNELS 3 Xrotation Yrotation Zrotation
						JOINT RightForeArm
						{
							OFFSET -29.972300 0.000000 0.000000
							CHANNELS 3 Xrotation Yrotation Zrotation
							JOINT RightHand
							{
								OFFSET -26.026505 0.000000 0.000000
								CHANNELS 3 Xrotation Yrotation Zrotation
								JOINT RightHandThumb1
								{
									OFFSET -12.240601 -7.148026 9.207092
									CHANNELS 3 Xrotation Yrotation Zrotation
									JOINT RightHandThumb2
									{
										OFFSET -4.138618 -2.389435 2.389433
										CHANNELS 3 Xrotation Yrotation Zrotation
										JOINT RightHandThumb3
										{
											OFFSET -2.726974 -1.574417 1.574421
											CHANNELS 3 Xrotation Yrotation Zrotation
											JOINT RightHandThumb4
											{
												OFFSET -3.941010 -2.275345 2.275343
												CHANNELS 3 Xrotation Yrotation Zrotation
												End Site
												{
													OFFSET 0.005814 5.087799 0.009927
												}
											}
										}
									}
								}
								JOINT RightHandIndex1
								{
									OFFSET -24.424698 -1.985657 5.953444
									CHANNELS 3 Xrotation Yrotation Zrotation
									JOINT RightHandIndex2
									{
										OFFSET -6.426697 0.000000 0.000000
										CHANNELS 3 Xrotation Yrotation Zrotation
										JOINT RightHandIndex3
										{
											OFFSET -5.337898 0.000000 0.000000
											CHANNELS 3 Xrotation Yrotation Zrotation
											JOINT RightHandIndex4
											{
												OFFSET -4.409401 0.000000 0.000000
												CHANNELS 3 Xrotation Yrotation Zrotation
												End Site
												{
													OFFSET 0.000000 4.409363 0.014408
												}
											}
										}
									}
								}
								JOINT RightHandMiddle1
								{
									OFFSET -23.810097 0.000000 0.000000
									CHANNELS 3 Xrotation Yrotation Zrotation
									JOINT RightHandMiddle2
									{
										OFFSET -7.176498 0.000000 0.000000
										CHANNELS 3 Xrotation Yrotation Zrotation
										JOINT RightHandMiddle3
										{
											OFFSET -6.774902 0.000000 0.000000
											CHANNELS 3 Xrotation Yrotation Zrotation
											JOINT RightHandMiddle4
											{
												OFFSET -5.403328 0.000000 0.000000
												CHANNELS 3 Xrotation Yrotation Zrotation
												End Site
												{
													OFFSET 0.027702 5.403244 0.017457
												}
											}
										}
									}
								}
								JOINT RightHandRing1
								{
									OFFSET -22.908302 -0.839325 -6.020576
									CHANNELS 3 Xrotation Yrotation Zrotation
									JOINT RightHandRing2
									{
										OFFSET -6.337502 0.000000 0.000000
										CHANNELS 3 Xrotation Yrotation Zrotation
										JOINT RightHandRing3
										{
											OFFSET -5.779297 0.000000 0.000000
											CHANNELS 3 Xrotation Yrotation Zrotation
											JOINT RightHandRing4
											{
												OFFSET -4.965698 0.000000 0.000000
												CHANNELS 3 Xrotation Yrotation Zrotation
												End Site
												{
													OFFSET 0.000000 4.965668 0.016226
												}
											}
										}
									}
								}
								JOINT RightHandPinky1
								{
									OFFSET -20.037003 -1.530334 -10.950259
									CHANNELS 3 Xrotation Yrotation Zrotation
									JOINT RightHandPinky2
									{
										OFFSET -5.254700 0.000000 0.000000
										CHANNELS 3 Xrotation Yrotation Zrotation
										JOINT RightHandPinky3
										{
											OFFSET -4.810204 0.000000 0.000000
											CHANNELS 3 Xrotation Yrotation Zrotation
											JOINT RightHandPinky4
											{
												OFFSET -3.647202 0.000000 0.000000
												CHANNELS 3 Xrotation Yrotation Zrotation
												End Site
												{
													OFFSET 0.000000 3.647186 0.011917
												}
											}
										}
									}
								}
							}
						}
					}
				}
			}
		}
	}
	JOINT LeftUpLeg
	{
		OFFSET 15.427100 -6.655098 0.678600
		CHANNELS 3 Xrotation Yrotation Zrotation
		JOINT LeftLeg
		{
			OFFSET 4.081073 -39.591068 13.024000
			CHANNELS 3 Xrotation Yrotation Zrotation
			JOINT LeftFoot
			{
				OFFSET -4.081074 -37.707932 -15.979700
				CHANNELS 3 Xrotation Yrotation Zrotation
				JOINT LeftToeBase
				{
					OFFSET 5.346399 -15.068900 20.645000
					CHANNELS 3 Xrotation Yrotation Zrotation
					JOINT LeftToe_End
					{
						OFFSET 2.754700 0.931300 11.300900
						CHANNELS 3 Xrotation Yrotation Zrotation
						End Site
						{
							OFFSET 0.000000 11.669021 0.000000
						}
					}
				}
			}
		}
	}
	JOINT RightUpLeg
	{
		OFFSET -15.569500 -6.655098 0.678600
		CHANNELS 3 Xrotation Yrotation Zrotation
		JOINT RightLeg
		{
			OFFSET -4.081825 -39.591045 13.023800
			CHANNELS 3 Xrotation Yrotation Zrotation
			JOINT RightFoot
			{
				OFFSET 4.081824 -37.707954 -15.979600
				CHANNELS 3 Xrotation Yrotation Zrotation
				JOINT RightToeBase
				{
					OFFSET -5.346400 -15.068900 20.645000
					CHANNELS 3 Xrotation Yrotation Zrotation
					JOINT RightToe_End
					{
						OFFSET -2.754700 0.931300 11.300900
						CHANNELS 3 Xrotation Yrotation Zrotation
						End Site
						{
							OFFSET 0.000000 11.669021 0.000000
						}
					}
				}
			}
		}
	}
}
MOTION
Frames: 4
Frame Time: 0.033333
1.532588 90.123390 -1.660976 -16.965066 -39.276716 -8.654775 7.992128 0.129403 -0.957239 16.413498 -0.121085 -0.745996 16.413566 -0.188749 -0.721089 0.367425 7.480972 0.837545 -6.979372 21.597273 11.882997 -0.000000 -0.000002 0.000000 -37.582061 -4.822805 1.545597 -41.637007 -7.015591 -61.678835 -0.000074 -64.846301 -0.000063 -113.465541 8.539027 33.316553 4.709225 9.560374 3.111987 19.473206 -1.474898 7.636934 -4.536180 -9.613112 1.492958 -0.000002 -0.000001 0.000000 -0.212824 3.933689 -36.747125 2.942135 5.078912 -60.144610 0.513136 2.399597 -24.137419 -0.000000 -0.000001 0.000001 0.405925 5.507043 -52.453172 3.387151 5.308622 -65.057443 0.281837 1.796897 -17.826824 -0.000004 -0.000003 0.000004 -0.074376 5.736779 -61.061434 4.055042 5.569506 -72.094901 0.582271 2.548141 -25.739010 0.000001 -0.000001 -0.000001 -6.565576 4.545128 -72.425250 3.299644 5.267210 -64.107855 0.175344 1.424013 -14.038889 0.000000 -0.000002 -0.000001 -41.186321 -8.603919 -9.940788 -46.819690 58.242976 100.948734 -0.000054 98.442963 0.000031 -52.463120 -17.216620 -29.273101 8.373814 -4.905342 11.021951 21.620189 -18.183898 -18.379219 -0.700604 -49.819372 -32.534124 -0.000000 0.000002 0.000003 -0.920030 1.683588 12.434973 0.748118 -2.533465 32.898279 0.615611 -2.316083 29.767826 0.000000 -0.000000 -0.000001 3.411207 -7.184775 51.650201 6.296803 -4.359569 110.634694 0.248720 -1.503055 18.790284 0.000000 -0.000000 -0.000000 -3.354374 -2.596949 57.010858 5.440877 -4.590907 99.698181 1.689745 -3.590966 50.387282 0.000000 0.000000 -0.000001 -3.996426 -3.303871 64.593584 4.058736 -4.618648 82.609273 2.315547 -4.026778 59.787193 0.000000 0.000001 0.000003 -20.280911 43.391222 28.361493 24.637008 -0.281284 -1.006868 0.913470 1.967332 -4.117741 -0.212239 0.000017 -0.004870 0.000000 0.000000 0.000000 7.971583 5.366593 -8.000908 28.705205 0.221212 1.381820 -21.774167 -18.063842 5.126553 -0.020498 0.000003 -0.000005 0.000000 0.000001 0.000000 
1.540484 90.124550 -1.661045 -16.939504 -39.279523 -8.647374 7.991893 0.105444 -0.937356 16.413221 -0.121026 -0.735555 16.413296 -0.188685 -0.711875 0.386957 7.517705 0.783828 -6.983817 21.674965 11.859572 -0.000000 0.000000 0.000000 -37.573765 -4.873457 1.654008 -41.518900 -6.863095 -61.694380 0.000106 -64.923018 0.000096 -113.545106 8.487060 33.318568 5.297524 13.462597 3.998461 19.473207 -1.474899 7.636928 -4.536181 -9.613113 1.492960 -0.000002 -0.000005 -0.000001 0.229614 4.570585 -37.633939 3.194586 5.215122 -62.958034 0.513120 2.399602 -24.137311 0.000001 0.000001 -0.000002 1.187043 6.120729 -52.926842 3.388871 5.309433 -65.076137 0.281861 1.796956 -17.827089 -0.000003 0.000004 0.000002 0.913044 6.296577 -61.386551 4.057237 5.570225 -72.117577 0.582270 2.548140 -25.739010 0.000001 -0.000000 0.000000 -5.513872 4.972775 -72.907475 3.292854 5.263941 -64.034103 0.175347 1.424015 -14.038893 0.000001 -0.000003 -0.000001 -41.174819 -8.601372 -9.903867 -46.861129 58.279006 100.926782 0.000123 98.456740 -0.000168 -52.534380 -17.319905 -29.312105 8.393025 -4.955044 11.026244 21.675192 -18.126552 -18.416183 -0.704054 -49.819816 -32.537344 0.000001 -0.000000 0.000002 -0.941552 1.640562 12.776247 0.657983 -2.388537 30.799638 0.537444 -2.173753 27.771665 0.000000 0.000000 -0.000001 3.410176 -7.184441 51.640697 6.295395 -4.360112 110.616334 0.248110 -1.501296 18.767283 -0.000000 0.000000 0.000000 -3.354261 -2.598557 57.021629 5.442322 -4.590659 99.716288 1.689710 -3.590963 50.386958 -0.000000 0.000000 -0.000000 -4.005766 -3.299562 64.594390 4.058744 -4.618654 82.609369 2.315579 -4.026813 59.787672 -0.000000 0.000000 0.000002 -20.305142 43.376831 28.363626 24.643667 -0.265378 -1.005273 0.910856 1.966905 -4.120794 -0.212239 0.000016 -0.004870 -0.000000 -0.000001 -0.000000 7.906904 5.343778 -7.814250 28.771301 0.150303 1.027513 -21.739070 -18.115265 5.315073 -0.069298 -0.000014 -0.000000 0.000000 0.000001 0.000000 
1.545356 90.110657 -1.668898 -16.931090 -39.293498 -8.652363 7.992249 0.099932 -0.915774 16.413766 -0.121271 -0.726284 16.413836 -0.187108 -0.703225 0.406351 7.567312 0.704192 -7.024906 21.699291 11.970718 0.000000 0.000001 0.000001 -37.569981 -4.889138 1.712125 -41.373072 -6.944145 -61.577051 -0.000035 -64.809295 -0.000041 -113.850388 8.390443 33.227477 5.700088 16.453760 4.679884 19.473204 -1.474898 7.636931 -4.536184 -9.613114 1.492962 -0.000002 0.000001 -0.000002 0.745706 5.264339 -38.608515 3.485920 5.353267 -66.120650 0.513145 2.399639 -24.137730 0.000002 0.000001 -0.000001 2.074631 6.792618 -53.491224 3.388824 5.309392 -65.075713 0.281841 1.796930 -17.826765 -0.000001 -0.000002 0.000003 2.026390 6.909842 -61.782585 4.057719 5.570368 -72.122536 0.582273 2.548141 -25.739008 0.000001 0.000004 0.000001 -4.330640 5.426560 -73.442757 3.287094 5.261133 -63.971080 0.175343 1.424014 -14.038888 -0.000001 -0.000003 0.000003 -41.163347 -8.580667 -9.878608 -47.023247 58.289060 101.007856 0.000503 98.409625 -0.000440 -52.637573 -17.501902 -29.426712 8.405315 -4.974606 11.029350 21.636666 -18.168737 -18.393395 -0.682870 -49.820096 -32.516967 0.000003 0.000001 0.000002 -0.967502 1.589158 13.191603 0.721763 -2.492318 32.297284 0.617326 -2.318995 29.809449 0.000000 0.000000 -0.000000 3.408269 -7.183462 51.628276 6.294353 -4.360514 110.602141 0.247931 -1.500750 18.760144 -0.000000 -0.000000 0.000000 -3.354399 -2.600643 57.037667 5.442789 -4.590589 99.722210 1.689768 -3.591008 50.387894 -0.000000 -0.000001 0.000002 -4.013705 -3.295804 64.594970 4.058679 -4.618653 82.608433 2.315542 -4.026793 59.787071 -0.000000 0.000001 0.000002 -20.345049 43.355186 28.389500 24.684305 -0.243534 -0.997965 0.896299 1.969167 -4.131000 -0.212239 0.000018 -0.004870 -0.000000 0.000000 0.000000 7.868464 5.346573 -7.811365 28.803604 0.172621 1.043523 -21.749219 -18.111884 5.297432 -0.128191 0.000014 0.000001 -0.000000 -0.000001 0.000000 
1.544341 90.094063 -1.677883 -16.942602 -39.314979 -8.677398 7.989957 0.108048 -0.885130 16.413281 -0.121152 -0.718931 16.413344 -0.183421 -0.696049 0.417485 7.627592 0.600653 -7.159165 21.644943 12.268255 0.000000 0.000000 0.000001 -37.570583 -4.839944 1.718817 -41.717658 -6.930463 -61.585412 0.000070 -65.086327 0.000048 -113.067826 8.682104 32.770746 5.813714 17.362051 4.889407 19.473201 -1.474899 7.636933 -4.536186 -9.613113 1.492959 0.000002 -0.000000 -0.000000 1.282857 5.938286 -39.561449 3.785820 5.475653 -69.298000 0.513126 2.399582 -24.137305 0.000001 -0.000003 0.000001 2.977692 7.447693 -54.094395 3.386478 5.308318 -65.050285 0.281745 1.796589 -17.823563 0.000003 0.000002 -0.000002 3.149542 7.507872 -62.214854 4.055860 5.569773 -72.103459 0.582273 2.548139 -25.739011 0.000002 0.000000 -0.000000 -3.141456 5.854599 -73.971065 3.283402 5.259349 -63.931001 0.175346 1.424013 -14.038889 -0.000001 0.000001 -0.000001 -41.148055 -8.525151 -9.851938 -46.565853 58.499047 101.034836 0.000893 98.159251 -0.000937 -51.403515 -16.017029 -28.746593 8.423898 -5.089971 11.036288 21.603617 -18.196307 -18.373422 -0.539581 -49.815022 -32.380131 -0.000001 0.000003 -0.000001 -1.035009 1.476063 14.234937 1.090261 -2.996322 39.982053 1.028855 -2.921640 38.792548 0.000000 0.000000 -0.000000 3.406950 -7.186128 51.546198 6.292419 -4.361218 110.576965 0.248115 -1.501357 18.767944 0.000000 -0.000000 -0.000000 -3.354315 -2.602325 57.049254 5.443331 -4.590488 99.728910 1.689768 -3.590997 50.387894 0.000000 -0.000000 -0.000000 -4.017288 -3.292471 64.583578 4.058758 -4.618641 82.609437 2.315435 -4.026726 59.785718 0.000000 -0.000000 0.000001 -20.380950 43.332670 28.437476 24.732024 -0.219293 -0.991259 0.878936 1.972012 -4.150010 -0.212239 0.000018 -0.004870 -0.000000 -0.000000 0.000000 7.846403 5.355202 -7.817424 28.831075 0.206634 1.097835 -21.767169 -18.101446 5.252685 -0.181185 -0.000014 0.000002 0.000000 0.000003 -0.000000 
